<svg xml:space="preserve" viewBox="2.0544 1.7664 18.528 15.312000000000001" y="0%" x="0%" xmlns:xlink="http://www.w3.org/1999/xlink" xmlns="http://www.w3.org/2000/svg" version="1.1" style="max-height: 500px" width="18.528" height="15.312000000000001">
	<path d="M4.77,9.68C5.19,8.14,5.51,7.19,6.37,5.84C8.48,5.19,12.08,5.32,13.79,5.58C14.06,7.39,14.35,9.02,14.38,10.20C14.81,10.24,14.92,10.44,14.88,10.56C14.42,10.83,14.00,10.93,13.18,11.75C12.72,12.22,12.59,12.40,12.23,12.94C10.91,11.55,9.03,10.66,7.54,10.20C6.79,9.96,5.26,9.63,4.77,9.68z" stroke-linecap="square" stroke-linejoin="miter" stroke-width="0.072" fill-rule="nonzero" stroke-opacity="1.000" fill-opacity="1.000" stroke="#002631" fill="#002631"/>
	<path d="M10.81,9.78C11.55,9.87,12.15,10.20,12.72,9.85C12.93,9.59,13.30,9.74,13.23,9.51C13.08,9.28,12.77,8.83,12.18,8.56C11.65,5.43,14.05,5.85,13.73,9.23C13.62,10.13,12.61,10.69,11.46,10.29C10.98,10.33,10.26,10.39,9.55,10.07C8.74,9.76,7.97,8.79,8.78,7.01C9.24,6.16,10.68,6.24,11.02,7.49C11.20,8.29,11.08,9.10,10.81,9.78z" stroke-linecap="square" stroke-linejoin="miter" stroke-width="0.024" fill-rule="nonzero" stroke-opacity="1.000" fill-opacity="1.000" stroke="#F1EFD7" fill="#F1EFD7"/>
	<path d="M13.14,8.49C13.18,8.56,13.34,8.72,13.43,8.33C13.52,7.87,12.90,7.90,13.14,8.49z" stroke-linecap="square" stroke-linejoin="miter" stroke-width="0.0" fill-rule="nonzero" stroke-opacity="1.000" fill-opacity="0.992" stroke="#020200" fill="#000000"/>
	<path d="M9.74,8.48C9.76,8.54,9.90,8.66,9.95,8.35C10.08,7.89,9.47,7.93,9.74,8.48z" stroke-linecap="square" stroke-linejoin="miter" stroke-width="0.024" fill-rule="nonzero" stroke-opacity="1.000" fill-opacity="1.000" stroke="#020200" fill="#000000"/>
	<path d="M13.59,8.97C13.55,8.63,12.92,8.68,13.13,9.01C13.31,9.22,13.59,9.07,13.59,8.97z" stroke-linecap="square" stroke-linejoin="miter" stroke-width="0.0" fill-rule="nonzero" stroke-opacity="1.000" fill-opacity="1.000" stroke="#020200" fill="#F1AEAB"/>
	<path d="M10.06,8.96C10.10,8.54,9.28,8.59,9.51,9.02C9.73,9.29,10.07,9.10,10.06,8.96z" stroke-linecap="square" stroke-linejoin="miter" stroke-width="0.0" fill-rule="nonzero" stroke-opacity="1.000" fill-opacity="1.000" stroke="#020200" fill="#F1AEAB"/>
	<path d="M10.96,9.36C11.01,9.18,11.05,8.98,11.08,8.84C11.38,8.54,11.47,8.44,11.60,8.44C11.93,8.43,12.66,8.64,13.21,9.49C13.24,9.54,12.89,9.59,12.81,9.57C11.85,8.38,11.62,8.51,10.96,9.36z" stroke-linecap="square" stroke-linejoin="miter" stroke-width="0.0" fill-rule="nonzero" stroke-opacity="1.000" fill-opacity="1.000" stroke="#FA8269" fill="#FA8269"/>
	<path d="M11.77,8.70C11.49,8.70,11.25,9.00,10.97,9.36C10.93,9.51,10.90,9.59,10.84,9.76C10.93,9.77,11.05,9.79,11.16,9.81C11.88,9.55,12.19,9.55,12.78,9.56C12.45,9.14,12.05,8.69,11.77,8.70z" stroke-linecap="square" stroke-linejoin="miter" stroke-width="0.024" fill-rule="nonzero" stroke-opacity="1.000" fill-opacity="1.000" stroke="#FE653F" fill="#FE653F"/>
	<path d="M13.21,9.49C13.30,9.66,13.12,9.63,12.91,9.70C12.79,9.74,12.76,9.93,12.26,10.00C12.07,10.02,11.59,9.95,11.16,9.83C11.81,9.58,12.10,9.55,12.81,9.57C12.91,9.58,13.23,9.55,13.21,9.49z" stroke-linecap="square" stroke-linejoin="miter" stroke-width="0.0" fill-rule="nonzero" stroke-opacity="1.000" fill-opacity="1.000" stroke="#FE4A05" fill="#FE4A05"/>
	<path d="M5.86,5.35C5.69,5.44,5.50,5.76,6.05,6.29C6.14,6.12,6.26,5.90,6.34,5.81C6.43,5.77,6.66,5.72,6.94,5.65C8.35,5.36,9.75,5.32,11.06,5.33C11.39,5.32,13.55,5.47,13.83,5.54L13.85,5.74C13.96,5.76,14.28,5.72,14.22,5.54C14.01,5.00,13.71,5.01,13.38,4.92C12.91,3.82,12.06,3.03,10.81,2.81C9.29,2.57,8.26,3.11,7.80,3.50C7.28,3.91,6.85,4.56,6.80,5.08C6.45,5.14,6.21,5.17,5.86,5.35z" stroke-linecap="square" stroke-linejoin="miter" stroke-width="0.024" fill-rule="nonzero" stroke-opacity="1.000" fill-opacity="1.000" stroke="#FCFEFD" fill="#FCFEFD"/>
	<path d="M10.42,2.78C11.42,2.85,12.31,3.72,12.60,4.90C12.54,3.92,11.72,3.17,11.64,3.09C11.43,2.99,11.03,2.82,10.42,2.78z" stroke-linecap="square" stroke-linejoin="miter" stroke-width="0.024" fill-rule="nonzero" stroke-opacity="1.000" fill-opacity="1.000" stroke="#CBD2D5" fill="#CBD2D5"/>
	<path d="M5.81,5.98C5.82,5.39,6.72,5.27,7.15,5.19C8.14,5.00,9.62,4.95,10.13,5.01C9.77,3.41,8.11,3.40,8.03,3.50Q8.09,3.59,8.07,3.70C8.44,3.67,9.35,3.78,9.86,4.79C8.97,4.84,7.96,4.87,6.85,5.09C6.34,5.17,5.65,5.31,5.71,5.67C5.71,5.76,5.77,5.94,5.81,5.98z" stroke-linecap="square" stroke-linejoin="miter" stroke-width="0.024" fill-rule="nonzero" stroke-opacity="1.000" fill-opacity="1.000" stroke="#CBD2D5" fill="#CBD2D5"/>
	<path d="M16.31,4.68Q16.26,4.33,15.79,4.29C15.56,4.21,15.35,4.13,14.93,4.15Q15.33,4.26,15.76,4.61C15.61,5.78,14.41,6.69,14.03,6.87C14.13,7.50,14.36,8.87,14.42,10.16C14.81,10.19,15.01,10.45,14.91,10.60C14.68,10.75,13.34,11.19,12.24,13.00C11.03,11.78,9.08,10.45,6.03,9.87C5.63,9.79,5.12,9.71,4.73,9.72C4.11,9.85,4.01,10.16,4.13,11.32C3.65,12.56,3.12,13.71,2.58,16.52C2.45,17.27,2.45,17.74,2.40,18.42C4.36,19.12,7.49,18.54,8.22,17.80C8.27,19.18,7.97,20.20,7.31,20.65C10.49,20.71,13.72,20.62,15.49,20.66L15.48,20.51C16.73,20.52,17.83,20.34,17.93,20.20C17.24,17.40,16.45,15.70,15.74,13.66C16.75,13.49,18.48,11.73,18.62,11.06C18.59,9.71,17.71,6.41,17.26,5.90C16.90,5.38,16.71,5.03,16.31,4.68z" stroke-linecap="square" stroke-linejoin="miter" stroke-width="0.024" fill-rule="nonzero" stroke-opacity="1.000" fill-opacity="0.988" stroke="#FBC100" fill="#FBC100"/>
	<path d="M8.83,19.81C13.26,19.77,15.43,19.80,17.40,19.91C16.83,17.76,16.23,16.05,15.80,14.46C14.09,14.34,11.16,14.41,8.74,14.40C8.95,16.67,8.80,18.79,8.83,19.81z" stroke-linecap="square" stroke-linejoin="miter" stroke-width="0.024" fill-rule="nonzero" stroke-opacity="1.000" fill-opacity="1.000" stroke="#FCE43A" fill="#FCE43A"/>
	<path d="M4.16,11.31C5.40,11.46,6.63,11.67,8.11,12.12C10.41,12.73,11.19,13.27,12.52,13.91C12.69,15.18,13.04,18.73,12.96,19.81C11.18,19.84,9.31,19.84,7.95,19.84Q7.89,19.98,7.82,20.10C10.04,20.01,11.62,20.02,12.95,20.07C12.96,20.25,12.98,20.45,12.97,20.64L13.10,20.64C13.10,20.47,13.11,20.16,13.10,20.08C14.67,20.13,15.71,20.11,16.95,20.02C15.83,20.18,15.42,20.24,15.48,20.49C16.68,20.45,17.61,20.39,17.91,20.20Q17.88,20.07,17.86,19.99C16.59,19.79,14.80,19.85,13.12,19.82C13.20,17.79,12.96,14.84,12.60,13.31Q12.49,13.10,12.38,12.98C12.57,12.67,12.76,12.34,13.54,11.49C12.82,12.13,12.56,12.56,12.25,13.03Q12.42,13.18,12.51,13.49C10.11,11.91,8.02,11.54,7.27,11.32C6.23,11.09,4.88,10.66,4.12,10.83Q4.15,11.21,4.16,11.31z" stroke-linecap="square" stroke-linejoin="miter" stroke-width="0.024" fill-rule="nonzero" stroke-opacity="1.000" fill-opacity="1.000" stroke="#F78D01" fill="#F78D01"/>
	<path d="M14.02,6.87C14.10,6.83,14.19,6.77,14.28,6.71Q14.13,6.66,13.97,6.57Q14.00,6.72,14.02,6.87z" stroke-linecap="square" stroke-linejoin="miter" stroke-width="0.0" fill-rule="nonzero" stroke-opacity="1.000" fill-opacity="1.000" stroke="#0F7BA5" fill="#0F7BA5"/>
	<path d="M8.20,17.84C7.32,18.59,5.06,18.88,3.52,18.70C3.43,20.24,5.14,21.36,6.18,20.63C7.47,21.25,8.31,19.87,8.20,17.84z" stroke-linecap="square" stroke-linejoin="miter" stroke-width="0.024" fill-rule="nonzero" stroke-opacity="1.000" fill-opacity="0.992" stroke="#002631" fill="#002631"/>
	<path d="M7.70,19.35C7.71,19.23,7.74,18.81,7.68,18.52C7.45,18.75,6.67,18.96,6.36,19.00C6.36,19.18,6.35,19.65,6.55,20.18C6.68,20.59,7.61,20.35,7.70,19.35z" stroke-linecap="square" stroke-linejoin="miter" stroke-width="0.0" fill-rule="nonzero" stroke-opacity="1.000" fill-opacity="1.000" stroke="#40FF01" fill="#083845"/>
	<path d="M6.09,20.12C6.10,19.60,6.14,19.07,6.04,19.04C5.96,18.98,4.85,19.13,3.82,18.98C3.85,19.56,4.18,19.94,4.71,20.23C5.17,20.50,6.19,20.82,6.09,20.12z" stroke-linecap="square" stroke-linejoin="miter" stroke-width="0.0" fill-rule="nonzero" stroke-opacity="1.000" fill-opacity="1.000" stroke="#40FF01" fill="#083845"/>
	<path d="M12.05,21.66C13.29,21.74,14.89,21.67,16.42,21.68C16.38,21.12,15.58,20.99,15.50,20.97L15.49,20.68C14.38,20.67,13.63,20.66,12.42,20.68C11.62,20.69,10.45,20.70,9.40,20.69C8.67,20.69,8.11,20.69,7.28,20.67C6.95,20.85,6.58,20.85,6.18,20.65C6.07,20.73,5.95,20.78,5.88,20.81C5.90,21.04,5.98,21.50,6.00,21.64L10.06,21.67C10.04,21.40,9.79,21.17,9.42,21.01C10.02,20.92,10.62,20.94,12.04,20.95L12.05,21.66z" stroke-linecap="square" stroke-linejoin="miter" stroke-width="0.024" fill-rule="nonzero" stroke-opacity="1.000" fill-opacity="1.000" stroke="#FB482A" fill="#FB482A"/>
	<path d="M13.58,21.36Q13.60,21.52,13.72,21.51L14.45,21.49C14.19,20.98,13.55,20.91,13.58,21.36z" stroke-linecap="square" stroke-linejoin="miter" stroke-width="0.024" fill-rule="nonzero" stroke-opacity="1.000" fill-opacity="1.000" stroke="#FE6A3F" fill="#FE6A3F"/>
	<path d="M14.51,21.32Q14.57,21.47,14.65,21.53L15.29,21.50C15.09,20.97,14.22,20.89,14.51,21.32z" stroke-linecap="square" stroke-linejoin="miter" stroke-width="0.024" fill-rule="nonzero" stroke-opacity="1.000" fill-opacity="1.000" stroke="#FE6A3F" fill="#FE6A3F"/>
	<path d="M8.83,21.42Q8.90,21.54,8.35,21.49L6.09,21.50C6.17,20.95,8.77,20.66,8.83,21.42z" stroke-linecap="square" stroke-linejoin="miter" stroke-width="0.024" fill-rule="nonzero" stroke-opacity="1.000" fill-opacity="1.000" stroke="#FE6A3F" fill="#FE6A3F"/>
	<path d="M8.97,21.36Q9.06,21.58,9.72,21.49L9.72,21.40C9.44,20.94,8.65,20.96,8.97,21.36z" stroke-linecap="square" stroke-linejoin="miter" stroke-width="0.024" fill-rule="nonzero" stroke-opacity="1.000" fill-opacity="1.000" stroke="#FE6A3F" fill="#FE6A3F"/>
	<path d="M16.20,21.48Q16.18,21.23,15.70,21.08L15.36,20.99C15.87,21.35,15.45,21.71,16.20,21.48z" stroke-linecap="square" stroke-linejoin="miter" stroke-width="0.024" fill-rule="nonzero" stroke-opacity="1.000" fill-opacity="1.000" stroke="#FE6A3F" fill="#FE6A3F"/>
	<path d="M16.28,5.32C16.18,6.39,15.16,7.37,14.16,7.72C14.14,7.59,14.06,7.10,14.03,6.87C14.34,6.70,14.80,6.37,15.23,5.80C15.49,5.50,15.72,4.94,15.76,4.62C15.56,4.45,15.21,4.24,14.91,4.13C15.43,4.13,15.68,4.26,15.78,4.28C16.16,4.80,15.57,5.78,15.26,6.13C14.82,6.70,14.40,6.97,14.16,7.09L14.24,7.58C14.60,7.59,16.14,6.52,16.28,5.32z" stroke-linecap="square" stroke-linejoin="miter" stroke-width="0.024" fill-rule="nonzero" stroke-opacity="1.000" fill-opacity="1.000" stroke="#F78D01" fill="#F78D01"/>
	<path d="M15.11,11.99C15.71,11.80,15.31,11.77,15.27,11.29C15.24,11.18,15.22,11.05,15.18,10.91C15.09,10.43,15.04,10.15,14.62,10.06C14.55,9.73,14.45,9.30,14.41,9.03C15.61,8.83,17.18,7.37,17.48,6.34Q17.40,6.11,17.22,5.90C17.22,6.92,15.90,8.44,14.31,8.84C14.33,9.06,14.39,9.60,14.42,10.16C14.83,10.21,14.99,10.44,14.91,10.59L15.23,11.71C14.42,12.05,13.46,12.45,12.64,13.34Q12.79,13.52,13.01,13.60C13.44,12.91,14.28,12.32,15.00,12.11C15.34,12.80,15.61,13.37,15.72,13.69C15.60,13.06,15.06,12.00,15.11,11.99z" stroke-linecap="square" stroke-linejoin="miter" stroke-width="0.024" fill-rule="nonzero" stroke-opacity="1.000" fill-opacity="1.000" stroke="#F78D01" fill="#F78D01"/>
	<path d="M2.43,18.33C2.84,18.38,6.79,19.06,8.32,17.46C8.27,17.25,8.24,16.79,8.17,16.09C6.54,16.82,4.55,16.82,2.61,16.58C2.47,17.24,2.46,17.90,2.43,18.33z" stroke-linecap="square" stroke-linejoin="miter" stroke-width="0.0" fill-rule="nonzero" stroke-opacity="1.000" fill-opacity="0.914" stroke="#FCE43A" fill="#FFE744"/>
	<path d="M2.43,18.33C3.07,18.47,4.54,18.56,5.01,18.51C4.91,18.04,4.88,17.45,4.87,16.72C4.27,16.73,3.33,16.67,2.60,16.58C2.45,17.23,2.46,17.94,2.43,18.33z" stroke-linecap="square" stroke-linejoin="miter" stroke-width="0.0" fill-rule="nonzero" stroke-opacity="1.000" fill-opacity="1.000" stroke="#FECA00" fill="#EEAE00"/>
	<path d="M4.31,18.50C3.83,16.61,4.03,14.12,4.36,11.36Q4.26,11.35,4.15,11.33C4.09,11.49,4.07,11.54,4.06,11.57C4.14,11.63,4.22,11.64,4.25,11.64C4.24,11.86,4.25,11.95,4.10,13.01C4.07,13.39,3.91,14.41,3.73,16.57C3.63,17.47,3.62,17.92,3.64,18.46C3.72,18.47,4.18,18.51,4.31,18.50z" stroke-linecap="square" stroke-linejoin="miter" stroke-width="0.024" fill-rule="nonzero" stroke-opacity="1.000" fill-opacity="1.000" stroke="#F78D01" fill="#F78D01"/>
	<path d="M8.22,17.83Q8.35,17.75,8.42,17.67C8.27,17.42,8.22,16.73,8.17,16.02C8.15,15.42,8.02,13.49,7.96,12.10Q7.98,12.11,8.05,12.13C8.19,14.55,8.27,16.39,8.81,17.32C8.85,18.74,8.81,19.17,8.81,19.82L7.96,19.83C8.19,19.22,8.26,18.58,8.22,17.83z" stroke-linecap="square" stroke-linejoin="miter" stroke-width="0.024" fill-rule="nonzero" stroke-opacity="1.000" fill-opacity="1.000" stroke="#F78D01" fill="#F78D01"/>
	<path d="M14.93,4.16C14.51,3.62,13.08,3.62,12.88,4.04C13.02,4.19,13.30,4.63,13.38,4.90C13.56,4.93,13.94,5.01,14.06,5.22C14.31,5.55,14.32,5.78,13.85,5.76C13.88,5.93,13.92,6.28,13.98,6.57Q14.15,6.66,14.28,6.70C14.81,6.31,15.55,5.64,15.74,4.62C15.45,4.41,15.22,4.26,14.93,4.16z" stroke-linecap="square" stroke-linejoin="miter" stroke-width="0.024" fill-rule="nonzero" stroke-opacity="1.000" fill-opacity="1.000" stroke="#002631" fill="#002631"/>
	<path d="M18.16,13.34C18.16,13.39,18.48,13.66,18.52,13.65C18.52,13.58,18.19,13.33,18.16,13.34z" stroke-linecap="square" stroke-linejoin="miter" stroke-width="0.025618946" fill-rule="nonzero" stroke-opacity="1.000" fill-opacity="1.000" stroke="#450032" fill="#450032"/>
	<path d="M17.39,14.45C17.39,14.52,17.88,15.06,17.95,15.06C17.94,14.98,17.45,14.45,17.39,14.45z" stroke-linecap="square" stroke-linejoin="miter" stroke-width="0.0" fill-rule="nonzero" stroke-opacity="1.000" fill-opacity="1.000" stroke="#450032" fill="#450032"/>
	<path d="M18.19,6.05C18.29,6.00,19.81,5.58,19.54,5.59C19.58,5.58,18.06,6.02,18.19,6.05z" stroke-linecap="square" stroke-linejoin="miter" stroke-width="0.0" fill-rule="nonzero" stroke-opacity="1.000" fill-opacity="1.000" stroke="#450032" fill="#450032"/>
	<path d="M18.53,5.21C18.50,5.23,19.33,4.92,19.21,4.90C19.23,4.92,18.49,5.16,18.53,5.21z" stroke-linecap="square" stroke-linejoin="miter" stroke-width="0.0" fill-rule="nonzero" stroke-opacity="1.000" fill-opacity="1.000" stroke="#450032" fill="#450032"/>
	<path d="M6.23,2.59C6.25,2.52,5.86,2.03,5.79,2.35C5.74,2.37,6.15,2.83,6.23,2.59z" stroke-linecap="square" stroke-linejoin="miter" stroke-width="0.0" fill-rule="nonzero" stroke-opacity="1.000" fill-opacity="1.000" stroke="#450032" fill="#002631"/>
	<path d="M5.30,4.09C5.08,3.98,4.41,3.53,4.55,3.94C4.57,3.96,5.49,4.38,5.30,4.09z" stroke-linecap="square" stroke-linejoin="miter" stroke-width="0.0" fill-rule="nonzero" stroke-opacity="1.000" fill-opacity="1.000" stroke="#450032" fill="#002631"/>
	<path d="M4.28,7.46C4.24,7.44,3.88,8.00,3.97,7.99C3.94,7.99,4.31,7.46,4.28,7.46z" stroke-linecap="square" stroke-linejoin="miter" stroke-width="0.0" fill-rule="nonzero" stroke-opacity="1.000" fill-opacity="1.000" stroke="#450032" fill="#450032"/>
	<path d="M4.38,6.16C4.34,6.10,3.46,6.58,3.63,6.64C3.59,6.63,4.42,6.17,4.38,6.16z" stroke-linecap="square" stroke-linejoin="miter" stroke-width="0.0" fill-rule="nonzero" stroke-opacity="1.000" fill-opacity="1.000" stroke="#450032" fill="#450032"/>
	<path d="M15.49,4.94C14.71,3.86,13.48,3.64,12.97,4.10Q12.99,4.14,13.05,4.21C13.46,3.86,14.59,3.90,15.49,4.94z" stroke-linecap="square" stroke-linejoin="miter" stroke-width="0.0" fill-rule="nonzero" stroke-opacity="1.000" fill-opacity="1.000" stroke="#00F511" fill="#083845"/>
</svg>